<svg width="200" height="20" viewBox="0 0 200 20" fill="none" xmlns="http://www.w3.org/2000/svg">
<path d="M31.2533 2.8111C30.6116 2.8111 29.9762 2.93695 29.3834 3.18146C28.7906 3.42597 28.2519 3.78435 27.7982 4.23615C27.3445 4.68794 26.9847 5.22429 26.7392 5.81457C26.4937 6.40484 26.3674 7.03749 26.3675 7.67637V14.0998H28.4669V7.67637C28.4669 6.94059 28.7605 6.23495 29.283 5.71468C29.8055 5.1944 30.5143 4.90212 31.2533 4.90212C31.9922 4.90212 32.701 5.1944 33.2235 5.71468C33.7461 6.23495 34.0396 6.94059 34.0396 7.67637V14.0998H36.1398V7.67637C36.1398 6.38602 35.6249 5.14852 34.7085 4.2361C33.7921 3.32369 32.5492 2.8111 31.2533 2.8111Z" fill="white"/>
<path d="M85.6512 14.3793C86.947 14.3793 88.1897 13.8668 89.106 12.9545C90.0222 12.0423 90.537 10.805 90.537 9.51481V3.09067H88.4368V9.51481C88.4368 10.2506 88.1433 10.9562 87.6207 11.4765C87.0982 11.9968 86.3894 12.2891 85.6504 12.2891C84.9115 12.2891 84.2027 11.9968 83.6802 11.4765C83.1576 10.9562 82.8641 10.2506 82.8641 9.51481V3.09067H80.7639V9.51481C80.7639 10.1538 80.8903 10.7864 81.136 11.3767C81.3816 11.967 81.7416 12.5033 82.1955 12.9551C82.6493 13.4068 83.1881 13.7651 83.781 14.0095C84.374 14.2538 85.0095 14.3795 85.6512 14.3793Z" fill="white"/>
<path d="M1.25315 8.11832C1.94524 8.11832 2.50629 7.55971 2.50629 6.87062C2.50629 6.18154 1.94524 5.62292 1.25315 5.62292C0.561053 5.62292 0 6.18154 0 6.87062C0 7.55971 0.561053 8.11832 1.25315 8.11832Z" fill="#64C0FF"/>
<path d="M8.42087 2.8111C7.7792 2.8111 7.14381 2.93695 6.551 3.18146C5.95818 3.42597 5.41954 3.78435 4.96585 4.23615C4.51215 4.68794 4.15228 5.22429 3.9068 5.81457C3.66131 6.40484 3.53501 7.03749 3.53511 7.67637V11.1474C3.0447 10.7201 2.6497 10.1952 2.37557 9.60654H0.131226C0.395165 10.4745 0.832807 11.2803 1.41779 11.9753C2.00278 12.6704 2.72301 13.2404 3.53511 13.651V20H5.63451V14.3072C6.58811 14.4416 7.55958 14.3706 8.48325 14.099C9.40692 13.8274 10.2613 13.3616 10.9886 12.733C11.7159 12.1044 12.2992 11.3276 12.6991 10.4553C13.099 9.58294 13.3062 8.63529 13.3066 7.67637C13.3067 7.03749 13.1804 6.40484 12.9349 5.81457C12.6895 5.22429 12.3296 4.68794 11.8759 4.23615C11.4222 3.78435 10.8836 3.42597 10.2907 3.18146C9.69793 2.93695 9.06254 2.8111 8.42087 2.8111ZM10.7762 9.60654C10.341 10.5543 9.59475 11.3263 8.66027 11.7957C7.7258 12.2651 6.65871 12.4038 5.63451 12.1891V7.67937C5.63451 6.9436 5.92807 6.23796 6.45061 5.71768C6.97316 5.19741 7.68188 4.90512 8.42087 4.90512C9.15986 4.90512 9.86858 5.19741 10.3911 5.71768C10.9137 6.23796 11.2072 6.9436 11.2072 7.67937C11.2061 8.34534 11.059 9.00305 10.7762 9.60654Z" fill="white"/>
<path d="M24.4235 3.08917H22.3234V14.0997H24.4235V3.08917Z" fill="white"/>
<path d="M41.9501 0H39.8507V3.08918H37.4237V4.90135H39.8507V10.6393C39.8507 11.0902 39.8696 11.5329 39.9081 11.9749C39.942 12.3967 40.0711 12.8054 40.2856 13.1707C40.4954 13.527 40.8226 13.8174 41.267 14.0419C41.7113 14.2664 42.3377 14.3788 43.1459 14.3793C43.4544 14.3714 43.762 14.3438 44.0669 14.2967C44.4047 14.2607 44.7329 14.1626 45.0347 14.0073V12.1012C44.8105 12.228 44.5658 12.3147 44.3115 12.3575C44.0576 12.4025 43.8002 12.4257 43.5422 12.4266C43.1396 12.4266 42.8324 12.3532 42.6205 12.2064C42.412 12.0615 42.25 11.8598 42.154 11.6254C42.046 11.367 41.9847 11.0917 41.9728 10.8121C41.9567 10.5115 41.9489 10.2058 41.9494 9.89515V4.90135H45.0287V3.08918H41.9501V0Z" fill="white"/>
<path d="M100.741 9.62083C100.584 9.27438 100.352 8.96651 100.062 8.71888C99.7568 8.46107 99.4095 8.25764 99.035 8.11758C98.6208 7.95726 98.1961 7.82542 97.7638 7.72298C97.5305 7.67562 97.2512 7.62151 96.9235 7.55987C96.6072 7.501 96.2983 7.40748 96.0026 7.28102C95.726 7.16531 95.4729 7.00025 95.256 6.79397C95.1511 6.69124 95.0689 6.56785 95.0147 6.43169C94.9605 6.29554 94.9355 6.14961 94.9412 6.00326C94.9412 5.60239 95.1241 5.29673 95.49 5.08627C95.886 4.86925 96.3328 4.76083 96.7846 4.7721C97.3131 4.7721 97.76 4.87682 98.1254 5.08627C98.4794 5.28473 98.7922 5.54849 99.0471 5.86346L100.681 4.63304C100.304 4.00218 99.7314 3.51043 99.0494 3.23201C98.3684 2.95396 97.6392 2.81196 96.9032 2.81411C96.3864 2.81427 95.8721 2.88457 95.3745 3.02306C94.891 3.15295 94.4337 3.36475 94.0224 3.64917C93.6275 3.92546 93.3003 4.28696 93.0652 4.7067C92.8159 5.16519 92.691 5.68047 92.7029 6.20169C92.7029 6.72833 92.796 7.16978 92.9822 7.52605C93.161 7.8727 93.4166 8.17442 93.7295 8.40846C94.0555 8.64928 94.4175 8.83748 94.8023 8.96616C95.2069 9.10522 95.6327 9.22999 96.0856 9.33747C96.3196 9.38407 96.5881 9.44219 96.8911 9.51184C97.1865 9.57937 97.4752 9.67294 97.7539 9.79145C98.017 9.90116 98.2551 10.0627 98.4537 10.2665C98.5509 10.3689 98.6266 10.4894 98.6766 10.6211C98.7267 10.7528 98.7499 10.8931 98.7451 11.0339C98.7489 11.2551 98.6794 11.4715 98.5474 11.6495C98.4102 11.8318 98.2348 11.9821 98.0333 12.0899C97.8072 12.2128 97.5632 12.2995 97.3101 12.347C97.0454 12.4001 96.7761 12.4271 96.5061 12.4274C95.8991 12.4274 95.3858 12.2959 94.9661 12.0328C94.5523 11.7736 94.1691 11.4688 93.8239 11.1241L92.2386 12.4251C92.7831 13.1683 93.4011 13.6794 94.0926 13.9585C94.7841 14.2376 95.5894 14.3771 96.5083 14.3771C97.054 14.3768 97.5978 14.3143 98.1291 14.1907C98.6398 14.0782 99.1258 13.8745 99.5635 13.5894C99.983 13.311 100.334 12.9418 100.59 12.5093C100.854 12.0684 100.986 11.538 100.986 10.9181C100.986 10.404 100.904 9.97159 100.741 9.62083Z" fill="white"/>
<path d="M73.0108 2.81107C71.861 2.81107 70.737 3.15059 69.781 3.7867C68.825 4.42281 68.08 5.32692 67.6401 6.38466C67.2003 7.44241 67.0854 8.60628 67.31 9.72905C67.5346 10.8518 68.0885 11.8831 68.9019 12.6923C69.7152 13.5016 70.7513 14.0525 71.8791 14.2753C73.0069 14.4982 74.1758 14.3831 75.2379 13.9445C76.3 13.5058 77.2075 12.7635 77.8458 11.8112C78.4841 10.859 78.8243 9.73965 78.8236 8.59482C78.8236 7.83497 78.6732 7.08257 78.381 6.38061C78.0889 5.67864 77.6606 5.04088 77.1208 4.50376C76.581 3.96664 75.9402 3.54069 75.235 3.25025C74.5297 2.95981 73.774 2.81057 73.0108 2.81107ZM73.0108 12.2891C72.2769 12.2891 71.5596 12.0724 70.9494 11.6665C70.3393 11.2605 69.8637 10.6836 69.5829 10.0085C69.302 9.33351 69.2285 8.59073 69.3717 7.87411C69.5149 7.1575 69.8683 6.49925 70.3872 5.9826C70.9061 5.46595 71.5672 5.11411 72.2869 4.97157C73.0067 4.82903 73.7527 4.90218 74.4307 5.18179C75.1087 5.4614 75.6882 5.9349 76.0959 6.54241C76.5036 7.14993 76.7212 7.86417 76.7212 8.59482C76.7202 9.57429 76.3289 10.5134 75.6333 11.2059C74.9377 11.8985 73.9945 12.2881 73.0108 12.2891Z" fill="white"/>
<path d="M52.5648 2.81105C51.6126 2.80863 50.6744 3.03914 49.8326 3.48233C48.9909 3.92552 48.2713 4.56782 47.7373 5.35275C47.2033 6.13769 46.8711 7.04123 46.77 7.98393C46.6689 8.92664 46.8019 9.87964 47.1574 10.7592C47.5129 11.6387 48.0799 12.4178 48.8087 13.028C49.5374 13.6382 50.4056 14.0608 51.3368 14.2586C52.2681 14.4565 53.2339 14.4235 54.1493 14.1627C55.0648 13.9018 55.9019 13.421 56.5869 12.7626L55.2447 11.1398C54.79 11.62 54.2137 11.9694 53.5764 12.1511C52.9391 12.3329 52.2644 12.3403 51.6233 12.1727C50.9821 12.005 50.3982 11.6684 49.9329 11.1983C49.4675 10.7282 49.138 10.142 48.979 9.50127H58.2961C58.4336 8.67507 58.3883 7.82892 58.1631 7.02201C57.938 6.21509 57.5385 5.46689 56.9926 4.82974C56.4467 4.19259 55.7676 3.68187 55.0028 3.33331C54.238 2.98475 53.4059 2.80677 52.5648 2.81181V2.81105ZM48.982 7.6891C49.1815 6.89319 49.6425 6.18653 50.2918 5.68154C50.941 5.17656 51.7413 4.90225 52.5652 4.90225C53.3891 4.90225 54.1893 5.17656 54.8386 5.68154C55.4879 6.18653 55.9489 6.89319 56.1483 7.6891H48.982Z" fill="white"/>
<path d="M19.6481 2.8111C19.0064 2.8111 18.371 2.93695 17.7782 3.18146C17.1854 3.42597 16.6468 3.78435 16.1931 4.23615C15.7394 4.68794 15.3795 5.22429 15.134 5.81457C14.8885 6.40484 14.7622 7.03749 14.7623 7.67637V14.0998H16.8617V7.67637C16.8633 6.94101 17.1574 6.23621 17.6795 5.71616C18.2017 5.19612 18.9095 4.90315 19.6481 4.90137C19.9345 4.90151 20.2192 4.94692 20.4913 5.03591V2.88701C20.2131 2.83651 19.9309 2.8111 19.6481 2.8111Z" fill="white"/>
<path d="M64.9326 2.8111C64.291 2.8111 63.6556 2.93695 63.0628 3.18146C62.47 3.42597 61.9314 3.78435 61.4777 4.23615C61.024 4.68794 60.6641 5.22429 60.4186 5.81457C60.1731 6.40484 60.0468 7.03749 60.0469 7.67637V14.0998H62.1463V7.67637C62.1479 6.94101 62.442 6.23621 62.9641 5.71616C63.4863 5.19612 64.1941 4.90315 64.9326 4.90137C65.2191 4.90151 65.5037 4.94692 65.7759 5.03591V2.88701C65.4977 2.83651 65.2154 2.8111 64.9326 2.8111Z" fill="white"/>
<path d="M112.679 4.96822C113.325 5.36908 113.832 5.94383 114.198 6.69245C114.565 7.44107 114.747 8.32072 114.747 9.3314C114.747 10.3521 114.564 11.2378 114.198 11.9884C113.832 12.739 113.326 13.3135 112.679 13.7119C112.017 14.1166 111.252 14.3251 110.475 14.3132C109.619 14.3132 108.887 14.0962 108.279 13.6623C107.68 13.239 107.234 12.6341 107.009 11.938V18.7996H105.053V4.49319H107.009V6.74807C107.235 6.05219 107.68 5.44747 108.279 5.02384C108.883 4.5904 109.615 4.37343 110.475 4.37293C111.251 4.35951 112.016 4.56594 112.679 4.96822ZM108.399 6.52559C107.956 6.7978 107.599 7.18849 107.369 7.65302C107.11 8.17462 106.98 8.75087 106.992 9.33291C106.992 9.9778 107.118 10.5408 107.369 11.0218C107.6 11.4844 107.958 11.8722 108.401 12.14C108.845 12.4079 109.355 12.5448 109.874 12.5348C110.744 12.5348 111.441 12.2505 111.967 11.6817C112.493 11.113 112.756 10.3301 112.757 9.33291C112.757 8.34778 112.494 7.56784 111.967 6.9931C111.441 6.41835 110.743 6.13098 109.874 6.13098C109.355 6.12267 108.844 6.25937 108.399 6.52559Z" fill="#64C0FF"/>
<path d="M121.987 5.02088C122.585 5.44773 123.034 6.0508 123.27 6.74511V4.49023H125.225V14.1862H123.276V11.9313C123.041 12.6258 122.592 13.229 121.993 13.6556C121.389 14.09 120.657 14.307 119.797 14.3065C119.019 14.3184 118.255 14.1099 117.592 13.7052C116.946 13.3043 116.44 12.7298 116.074 11.9817C115.708 11.2336 115.525 10.3479 115.525 9.32469C115.525 8.31601 115.708 7.43635 116.074 6.68573C116.44 5.93511 116.946 5.36036 117.592 4.9615C118.255 4.55713 119.02 4.34861 119.797 4.3602C120.65 4.36671 121.38 4.58694 121.987 5.02088ZM118.307 6.98262C117.786 7.55135 117.526 8.3343 117.526 9.33145C117.527 10.3286 117.787 11.1116 118.307 11.6803C118.827 12.249 119.521 12.5334 120.391 12.5334C120.91 12.5442 121.422 12.4077 121.866 12.1398C122.31 11.8718 122.668 11.4836 122.899 11.0204C123.15 10.5393 123.276 9.97635 123.276 9.33145C123.288 8.74937 123.159 8.173 122.899 7.65157C122.671 7.18616 122.314 6.79548 121.87 6.52575C121.426 6.25601 120.914 6.11852 120.394 6.12953C119.523 6.12953 118.828 6.41389 118.307 6.98262Z" fill="#64C0FF"/>
<path d="M130.274 4.88934C130.869 4.51954 131.555 4.33489 132.332 4.33539V6.5151H131.75C130.891 6.5151 130.202 6.72907 129.682 7.15699C129.162 7.58492 128.902 8.2917 128.901 9.27733V14.1854H126.945V4.48947H128.901V6.39334C129.209 5.77413 129.684 5.25308 130.274 4.88934Z" fill="#64C0FF"/>
<path d="M137.909 12.4454V14.1869H136.707C135.701 14.1869 134.937 13.9376 134.417 13.4391C133.897 12.9405 133.636 12.1107 133.636 10.9497V6.20015H132.277V4.49321H133.636V2.0835H135.609V4.49321H137.891V6.20015H135.609V10.985C135.609 11.5362 135.71 11.9175 135.911 12.129C136.112 12.3404 136.465 12.4459 136.968 12.4454H137.909Z" fill="#64C0FF"/>
<path d="M147.036 5.42598C147.699 6.15355 148.031 7.19154 148.031 8.53996V14.1869H146.075V8.75117C146.075 7.88279 145.857 7.21134 145.423 6.73681C144.988 6.26228 144.393 6.02477 143.638 6.02427C142.86 6.02427 142.237 6.27932 141.768 6.78942C141.299 7.29953 141.064 8.04714 141.064 9.03227V14.1869H139.109V4.49095H141.064V6.62181C141.316 5.89524 141.739 5.33227 142.334 4.93291C142.944 4.53024 143.662 4.32182 144.393 4.33537C145.491 4.33537 146.372 4.6989 147.036 5.42598Z" fill="#64C0FF"/>
<path d="M158.394 9.73581H151.12C151.154 10.7335 151.423 11.4726 151.926 11.9531C152.429 12.4336 153.053 12.6739 153.796 12.6739C154.45 12.6739 155.002 12.5038 155.451 12.1636C155.894 11.8369 156.192 11.3518 156.282 10.8106H158.38C158.264 11.4681 157.993 12.089 157.591 12.6228C157.181 13.1578 156.645 13.5838 156.03 13.863C155.357 14.1697 154.625 14.3237 153.885 14.314C152.969 14.314 152.16 14.1135 151.457 13.7127C150.749 13.3098 150.174 12.7111 149.802 11.9892C149.399 11.2376 149.198 10.3519 149.198 9.33219C149.198 8.32351 149.399 7.44386 149.802 6.69324C150.175 5.97127 150.75 5.37237 151.457 4.96901C152.162 4.57065 152.971 4.37021 153.885 4.36771C154.811 4.36771 155.62 4.56438 156.313 4.95773C156.989 5.33452 157.542 5.89605 157.908 6.57598C158.285 7.28245 158.477 8.07224 158.466 8.8722C158.468 9.16163 158.444 9.45067 158.394 9.73581ZM156.172 7.22914C155.957 6.82101 155.621 6.48912 155.209 6.27909C154.797 6.07237 154.341 5.96671 153.88 5.97092C153.113 5.97092 152.472 6.21144 151.958 6.69248C151.443 7.17352 151.163 7.88306 151.117 8.82109H156.492C156.514 8.18822 156.407 7.65757 156.172 7.22914Z" fill="#64C0FF"/>
<path d="M163.044 4.88934C163.639 4.51954 164.325 4.33489 165.103 4.33539V6.5151H164.52C163.661 6.5151 162.972 6.72907 162.452 7.15699C161.931 7.58492 161.671 8.2917 161.671 9.27733V14.1854H159.715V4.48947H161.671V6.39334C161.979 5.77413 162.454 5.25308 163.044 4.88934Z" fill="#64C0FF"/>
<path d="M177.233 5.42599C177.896 6.15356 178.227 7.19156 178.228 8.53997V14.1869H176.271V8.75118C176.271 7.8828 176.054 7.21135 175.619 6.73682C175.184 6.2623 174.589 6.02478 173.835 6.02428C173.056 6.02428 172.433 6.27933 171.964 6.78944C171.496 7.29954 171.261 8.04715 171.261 9.03229V14.1869H169.305V1.16803H171.261V6.62182C171.512 5.89525 171.936 5.33228 172.531 4.93292C173.14 4.53015 173.858 4.32173 174.59 4.33538C175.688 4.33538 176.569 4.69892 177.233 5.42599Z" fill="#64C0FF"/>
<path d="M188.59 4.49323V14.1892H186.618V12.0764C186.403 12.7568 185.961 13.3434 185.365 13.7382C184.77 14.1311 184.078 14.3275 183.289 14.3275C182.191 14.3275 181.31 13.964 180.646 13.2369C179.983 12.5098 179.651 11.4718 179.651 10.1229V4.49323H181.607V9.91169C181.607 10.7916 181.825 11.4681 182.26 11.9411C182.694 12.4141 183.289 12.6516 184.043 12.6536C184.822 12.6536 185.446 12.3956 185.914 11.8794C186.383 11.3633 186.617 10.6117 186.618 9.62457V4.49323H188.59Z" fill="#64C0FF"/>
<path d="M197.932 4.96825C198.578 5.36911 199.085 5.94386 199.451 6.69248C199.818 7.44109 200 8.32075 200 9.33143C200 10.3521 199.817 11.2378 199.451 11.9884C199.085 12.7391 198.579 13.3135 197.932 13.7119C197.27 14.1166 196.505 14.3252 195.728 14.3132C194.87 14.3132 194.138 14.0962 193.532 13.6623C192.933 13.239 192.488 12.6341 192.262 11.9381V14.1929H190.306V1.16803H192.262V6.74509C192.488 6.04922 192.933 5.44449 193.532 5.02086C194.136 4.58742 194.868 4.37045 195.728 4.36995C196.505 4.35743 197.269 4.56492 197.932 4.96825ZM193.652 6.52561C193.209 6.79783 192.853 7.18852 192.622 7.65305C192.363 8.17465 192.233 8.7509 192.245 9.33294C192.245 9.97783 192.371 10.5408 192.622 11.0218C192.853 11.4844 193.211 11.8722 193.654 12.1401C194.098 12.4079 194.608 12.5449 195.127 12.5349C195.996 12.5349 196.693 12.2505 197.22 11.6818C197.747 11.113 198.011 10.3296 198.012 9.33143C198.012 8.3463 197.749 7.56637 197.223 6.99162C196.698 6.41688 196 6.12951 195.13 6.12951C194.61 6.121 194.098 6.25826 193.652 6.52561Z" fill="#64C0FF"/>
</svg>
