<svg width="179" height="24" viewBox="0 0 179 24" fill="none" xmlns="http://www.w3.org/2000/svg">
<g clip-path="url(#clip0)">
<g clip-path="url(#clip1)">
<path d="M14.2431 3.80005C13.4348 3.80005 12.6344 3.95828 11.8876 4.26571C11.1409 4.57313 10.4624 5.02372 9.89104 5.59173C9.31966 6.15973 8.86654 6.83402 8.55759 7.57606C8.24864 8.3181 8.0899 9.11334 8.09046 9.91635V14.2791C7.47173 13.7439 6.97382 13.0849 6.62935 12.3452H3.80005C4.13305 13.4364 4.68482 14.4493 5.42214 15.323C6.15947 16.1968 7.06711 16.9134 8.09046 17.4296V25.4001H10.734V18.2518C11.9356 18.4219 13.16 18.3335 14.3243 17.9925C15.4885 17.6516 16.5655 17.0661 17.4821 16.2756C18.3987 15.4852 19.1336 14.5083 19.637 13.4111C20.1405 12.314 20.4007 11.1221 20.4001 9.91635C20.4001 9.11314 20.2408 8.3178 19.9314 7.57574C19.622 6.83368 19.1685 6.15942 18.5967 5.59147C18.025 5.02352 17.3463 4.573 16.5993 4.26562C15.8523 3.95825 15.0517 3.80005 14.2431 3.80005ZM17.1991 12.3452C16.6486 13.5348 15.7081 14.5036 14.5315 15.0934C13.3548 15.6832 12.0116 15.859 10.7213 15.5922V9.91635C10.7529 9.01217 11.1366 8.1555 11.7917 7.52695C12.4467 6.89841 13.3219 6.5471 14.2326 6.5471C15.1433 6.5471 16.0185 6.89841 16.6735 7.52695C17.3285 8.1555 17.7123 9.01217 17.7439 9.91635C17.7469 10.7548 17.5653 11.5838 17.2118 12.3452H17.1991Z" fill="white"/>
<path d="M5.2001 10.5999C6.08375 10.5999 6.80009 9.88356 6.80009 8.9999C6.80009 8.11625 6.08375 7.3999 5.2001 7.3999C4.31644 7.3999 3.6001 8.11625 3.6001 8.9999C3.6001 9.88356 4.31644 10.5999 5.2001 10.5999Z" fill="white"/>
</g>
<rect x="32" y="2" width="1" height="20" fill="white"/>
<path d="M43.184 24.56C43.024 24.56 42.888 24.504 42.776 24.392C42.664 24.296 42.608 24.16 42.608 23.984V8.096C42.608 7.92 42.664 7.784 42.776 7.688C42.888 7.576 43.024 7.52 43.184 7.52H45.08C45.256 7.52 45.392 7.576 45.488 7.688C45.6 7.784 45.656 7.92 45.656 8.096V9.056C46.552 7.872 47.832 7.28 49.496 7.28C51.112 7.28 52.352 7.792 53.216 8.816C54.08 9.824 54.544 11.192 54.608 12.92C54.624 13.112 54.632 13.392 54.632 13.76C54.632 14.144 54.624 14.432 54.608 14.624C54.544 16.304 54.08 17.664 53.216 18.704C52.352 19.728 51.112 20.24 49.496 20.24C47.88 20.24 46.648 19.672 45.8 18.536V23.984C45.8 24.16 45.744 24.296 45.632 24.392C45.536 24.504 45.4 24.56 45.224 24.56H43.184ZM48.608 17.672C50.336 17.672 51.256 16.608 51.368 14.48C51.384 14.32 51.392 14.08 51.392 13.76C51.392 13.44 51.384 13.2 51.368 13.04C51.256 10.912 50.336 9.848 48.608 9.848C47.68 9.848 46.992 10.144 46.544 10.736C46.096 11.328 45.848 12.056 45.8 12.92L45.776 13.832L45.8 14.768C45.832 15.568 46.08 16.256 46.544 16.832C47.024 17.392 47.712 17.672 48.608 17.672ZM60.9502 20.24C60.1342 20.24 59.3822 20.08 58.6942 19.76C58.0222 19.424 57.4862 18.976 57.0862 18.416C56.7022 17.856 56.5102 17.24 56.5102 16.568C56.5102 15.48 56.9502 14.6 57.8302 13.928C58.7102 13.256 59.9182 12.8 61.4542 12.56L64.7422 12.08V11.576C64.7422 10.872 64.5662 10.344 64.2142 9.992C63.8622 9.64 63.2942 9.464 62.5102 9.464C61.9822 9.464 61.5502 9.568 61.2142 9.776C60.8942 9.968 60.6382 10.16 60.4462 10.352C60.2542 10.56 60.1262 10.696 60.0622 10.76C59.9982 10.952 59.8782 11.048 59.7022 11.048H57.8542C57.7102 11.048 57.5822 11 57.4702 10.904C57.3742 10.808 57.3262 10.68 57.3262 10.52C57.3422 10.12 57.5342 9.664 57.9022 9.152C58.2862 8.64 58.8702 8.2 59.6542 7.832C60.4382 7.464 61.3982 7.28 62.5342 7.28C64.4222 7.28 65.7982 7.704 66.6622 8.552C67.5262 9.4 67.9582 10.512 67.9582 11.888V19.424C67.9582 19.584 67.9022 19.72 67.7902 19.832C67.6942 19.944 67.5582 20 67.3822 20H65.4382C65.2782 20 65.1422 19.944 65.0302 19.832C64.9182 19.72 64.8622 19.584 64.8622 19.424V18.488C64.5102 19 64.0062 19.424 63.3502 19.76C62.7102 20.08 61.9102 20.24 60.9502 20.24ZM61.7662 17.96C62.6462 17.96 63.3662 17.672 63.9262 17.096C64.4862 16.52 64.7662 15.68 64.7662 14.576V14.072L62.3662 14.456C61.4382 14.6 60.7342 14.832 60.2542 15.152C59.7902 15.472 59.5582 15.864 59.5582 16.328C59.5582 16.84 59.7742 17.24 60.2062 17.528C60.6382 17.816 61.1582 17.96 61.7662 17.96ZM71.6131 20C71.4531 20 71.3171 19.944 71.2051 19.832C71.0931 19.72 71.0371 19.584 71.0371 19.424V8.12C71.0371 7.96 71.0931 7.824 71.2051 7.712C71.3171 7.584 71.4531 7.52 71.6131 7.52H73.5571C73.7331 7.52 73.8771 7.576 73.9891 7.688C74.1011 7.8 74.1571 7.944 74.1571 8.12V9.104C74.5411 8.592 75.0211 8.2 75.5971 7.928C76.1891 7.656 76.8611 7.52 77.6131 7.52H78.5971C78.7731 7.52 78.9091 7.576 79.0051 7.688C79.1171 7.784 79.1731 7.92 79.1731 8.096V9.824C79.1731 9.984 79.1171 10.12 79.0051 10.232C78.9091 10.344 78.7731 10.4 78.5971 10.4H76.7251C75.9731 10.4 75.3811 10.616 74.9491 11.048C74.5171 11.48 74.3011 12.072 74.3011 12.824V19.424C74.3011 19.584 74.2451 19.72 74.1331 19.832C74.0211 19.944 73.8771 20 73.7011 20H71.6131ZM86.6849 20C85.2289 20 84.1329 19.624 83.3969 18.872C82.6769 18.104 82.3169 16.984 82.3169 15.512V10.064H80.4209C80.2609 10.064 80.1249 10.008 80.0129 9.896C79.9009 9.768 79.8449 9.624 79.8449 9.464V8.096C79.8449 7.936 79.9009 7.8 80.0129 7.688C80.1249 7.576 80.2609 7.52 80.4209 7.52H82.3169V3.536C82.3169 3.36 82.3729 3.224 82.4849 3.128C82.5969 3.016 82.7329 2.96 82.8929 2.96H84.8369C85.0129 2.96 85.1489 3.016 85.2449 3.128C85.3569 3.224 85.4129 3.36 85.4129 3.536V7.52H88.4129C88.5889 7.52 88.7249 7.576 88.8209 7.688C88.9329 7.784 88.9889 7.92 88.9889 8.096V9.464C88.9889 9.64 88.9329 9.784 88.8209 9.896C88.7089 10.008 88.5729 10.064 88.4129 10.064H85.4129V15.272C85.4129 15.96 85.5329 16.48 85.7729 16.832C86.0129 17.184 86.4129 17.36 86.9729 17.36H88.6289C88.7889 17.36 88.9249 17.416 89.0369 17.528C89.1489 17.64 89.2049 17.776 89.2049 17.936V19.424C89.2049 19.584 89.1489 19.72 89.0369 19.832C88.9409 19.944 88.8049 20 88.6289 20H86.6849ZM91.91 20C91.75 20 91.614 19.944 91.502 19.832C91.39 19.72 91.334 19.584 91.334 19.424V8.096C91.334 7.936 91.39 7.8 91.502 7.688C91.614 7.576 91.75 7.52 91.91 7.52H93.878C94.038 7.52 94.174 7.576 94.286 7.688C94.398 7.8 94.454 7.936 94.454 8.096V9.08C95.398 7.88 96.734 7.28 98.462 7.28C99.934 7.28 101.102 7.768 101.966 8.744C102.83 9.704 103.262 11.016 103.262 12.68V19.424C103.262 19.584 103.206 19.72 103.094 19.832C102.998 19.944 102.862 20 102.686 20H100.574C100.414 20 100.278 19.944 100.166 19.832C100.054 19.72 99.998 19.584 99.998 19.424V12.824C99.998 11.88 99.766 11.152 99.302 10.64C98.854 10.112 98.198 9.848 97.334 9.848C96.486 9.848 95.814 10.112 95.318 10.64C94.838 11.168 94.598 11.896 94.598 12.824V19.424C94.598 19.584 94.542 19.72 94.43 19.832C94.334 19.944 94.198 20 94.022 20H91.91ZM111.687 20.24C109.911 20.24 108.495 19.728 107.439 18.704C106.399 17.664 105.847 16.208 105.783 14.336L105.759 13.736L105.783 13.136C105.863 11.312 106.423 9.88 107.463 8.84C108.519 7.8 109.927 7.28 111.687 7.28C113.575 7.28 115.031 7.856 116.055 9.008C117.095 10.16 117.615 11.696 117.615 13.616V14.12C117.615 14.28 117.559 14.416 117.447 14.528C117.335 14.64 117.191 14.696 117.015 14.696H109.047V14.888C109.079 15.768 109.319 16.512 109.767 17.12C110.231 17.712 110.863 18.008 111.663 18.008C112.607 18.008 113.367 17.64 113.943 16.904C114.087 16.728 114.199 16.616 114.279 16.568C114.375 16.52 114.511 16.496 114.687 16.496H116.751C116.895 16.496 117.015 16.544 117.111 16.64C117.223 16.72 117.279 16.824 117.279 16.952C117.279 17.336 117.047 17.792 116.583 18.32C116.135 18.832 115.487 19.28 114.639 19.664C113.791 20.048 112.807 20.24 111.687 20.24ZM114.351 12.68V12.608C114.351 11.664 114.111 10.904 113.631 10.328C113.167 9.752 112.519 9.464 111.687 9.464C110.855 9.464 110.207 9.752 109.743 10.328C109.279 10.904 109.047 11.664 109.047 12.608V12.68H114.351ZM120.738 20C120.578 20 120.442 19.944 120.33 19.832C120.218 19.72 120.162 19.584 120.162 19.424V8.12C120.162 7.96 120.218 7.824 120.33 7.712C120.442 7.584 120.578 7.52 120.738 7.52H122.682C122.858 7.52 123.002 7.576 123.114 7.688C123.226 7.8 123.282 7.944 123.282 8.12V9.104C123.666 8.592 124.146 8.2 124.722 7.928C125.314 7.656 125.986 7.52 126.738 7.52H127.722C127.898 7.52 128.034 7.576 128.13 7.688C128.242 7.784 128.298 7.92 128.298 8.096V9.824C128.298 9.984 128.242 10.12 128.13 10.232C128.034 10.344 127.898 10.4 127.722 10.4H125.85C125.098 10.4 124.506 10.616 124.074 11.048C123.642 11.48 123.426 12.072 123.426 12.824V19.424C123.426 19.584 123.37 19.72 123.258 19.832C123.146 19.944 123.002 20 122.826 20H120.738ZM135.739 20C135.579 20 135.443 19.944 135.331 19.832C135.219 19.72 135.163 19.584 135.163 19.424V3.536C135.163 3.36 135.219 3.224 135.331 3.128C135.443 3.016 135.579 2.96 135.739 2.96H137.875C138.051 2.96 138.187 3.016 138.283 3.128C138.395 3.224 138.451 3.36 138.451 3.536V9.008C139.411 7.856 140.707 7.28 142.339 7.28C143.811 7.28 144.987 7.768 145.867 8.744C146.747 9.704 147.187 11.016 147.187 12.68V19.424C147.187 19.584 147.131 19.72 147.019 19.832C146.923 19.944 146.787 20 146.611 20H144.451C144.291 20 144.155 19.944 144.043 19.832C143.931 19.72 143.875 19.584 143.875 19.424V12.824C143.875 11.88 143.643 11.152 143.179 10.64C142.731 10.112 142.075 9.848 141.211 9.848C140.363 9.848 139.691 10.112 139.195 10.64C138.699 11.168 138.451 11.896 138.451 12.824V19.424C138.451 19.584 138.395 19.72 138.283 19.832C138.187 19.944 138.051 20 137.875 20H135.739ZM154.864 20.24C153.392 20.24 152.232 19.76 151.384 18.8C150.536 17.824 150.112 16.504 150.112 14.84V8.096C150.112 7.936 150.168 7.8 150.28 7.688C150.392 7.576 150.528 7.52 150.688 7.52H152.8C152.976 7.52 153.112 7.576 153.208 7.688C153.32 7.784 153.376 7.92 153.376 8.096V14.696C153.376 16.68 154.248 17.672 155.992 17.672C156.824 17.672 157.48 17.408 157.96 16.88C158.456 16.352 158.704 15.624 158.704 14.696V8.096C158.704 7.936 158.76 7.8 158.872 7.688C158.984 7.576 159.12 7.52 159.28 7.52H161.392C161.568 7.52 161.704 7.576 161.8 7.688C161.912 7.784 161.968 7.92 161.968 8.096V19.424C161.968 19.584 161.912 19.72 161.8 19.832C161.704 19.944 161.568 20 161.392 20H159.448C159.288 20 159.152 19.944 159.04 19.832C158.928 19.72 158.872 19.584 158.872 19.424V18.44C157.976 19.64 156.64 20.24 154.864 20.24ZM172.051 20.24C170.403 20.24 169.123 19.672 168.211 18.536V19.424C168.211 19.584 168.155 19.72 168.043 19.832C167.947 19.944 167.811 20 167.635 20H165.739C165.579 20 165.443 19.944 165.331 19.832C165.219 19.72 165.163 19.584 165.163 19.424V3.536C165.163 3.36 165.219 3.224 165.331 3.128C165.443 3.016 165.579 2.96 165.739 2.96H167.779C167.955 2.96 168.091 3.016 168.187 3.128C168.299 3.224 168.355 3.36 168.355 3.536V8.864C169.267 7.808 170.499 7.28 172.051 7.28C173.667 7.28 174.907 7.808 175.771 8.864C176.635 9.92 177.099 11.288 177.163 12.968C177.179 13.16 177.187 13.416 177.187 13.736C177.187 14.072 177.179 14.336 177.163 14.528C177.099 16.256 176.635 17.64 175.771 18.68C174.907 19.72 173.667 20.24 172.051 20.24ZM171.163 17.672C172.891 17.672 173.811 16.608 173.923 14.48C173.939 14.32 173.947 14.08 173.947 13.76C173.947 13.44 173.939 13.2 173.923 13.04C173.811 10.912 172.891 9.848 171.163 9.848C170.267 9.848 169.579 10.136 169.099 10.712C168.635 11.272 168.387 11.952 168.355 12.752L168.331 13.664L168.355 14.6C168.403 15.464 168.651 16.192 169.099 16.784C169.547 17.376 170.235 17.672 171.163 17.672Z" fill="#64C0FF"/>
</g>
<defs>
<clipPath id="clip0">
<rect width="179" height="24" fill="white"/>
</clipPath>
<clipPath id="clip1">
<path d="M0 8C0 3.58172 3.58172 0 8 0H16C20.4183 0 24 3.58172 24 8V16C24 20.4183 20.4183 24 16 24H8C3.58172 24 0 20.4183 0 16V8Z" fill="white"/>
</clipPath>
</defs>
</svg>
