<svg width="16" height="16" viewBox="0 0 16 16" fill="none" xmlns="http://www.w3.org/2000/svg">
<circle cx="8" cy="8" r="8" fill="#2AD5AE"/>
<path d="M11.8467 2.375H4.15249C3.81545 2.375 3.54224 2.64822 3.54224 2.98525V13.0147C3.54224 13.3518 3.81545 13.625 4.15249 13.625H11.8467C12.1838 13.625 12.457 13.3518 12.457 13.0147V2.98525C12.457 2.64822 12.1838 2.375 11.8467 2.375Z" fill="#5A57F3"/>
<path d="M10.3372 9.64697H11.3467V12.559H10.3372V9.64697Z" fill="#F2C62D"/>
<path d="M4.65283 7.74805H5.66233V8.75767H4.65283V7.74805Z" fill="#FFF7ED"/>
<path d="M6.54749 7.74805H7.55699V8.75767H6.54749V7.74805Z" fill="#FFF7ED"/>
<path d="M8.44226 7.74805H9.45189V8.75767H8.44226V7.74805Z" fill="#FFF7ED"/>
<path d="M10.3372 7.74805H11.3467V8.75767H10.3372V7.74805Z" fill="#FFF7ED"/>
<path d="M4.65283 9.65186H5.66233V10.6615H4.65283V9.65186Z" fill="#FFF7ED"/>
<path d="M6.54749 9.65186H7.55699V10.6615H6.54749V9.65186Z" fill="#FFF7ED"/>
<path d="M8.44226 9.65186H9.45189V10.6615H8.44226V9.65186Z" fill="#FFF7ED"/>
<path d="M4.65283 11.5508H5.66233V12.5603H4.65283V11.5508Z" fill="#FFF7ED"/>
<path d="M6.54749 11.5508H7.55699V12.5603H6.54749V11.5508Z" fill="#FFF7ED"/>
<path d="M8.44226 11.5508H9.45189V12.5603H8.44226V11.5508Z" fill="#FFF7ED"/>
<path d="M11.0795 4.21143H4.91983C4.77237 4.21143 4.65283 4.33097 4.65283 4.47843V6.38493C4.65283 6.53239 4.77237 6.65193 4.91983 6.65193H11.0795C11.2269 6.65193 11.3465 6.53239 11.3465 6.38493V4.47843C11.3465 4.33097 11.2269 4.21143 11.0795 4.21143Z" fill="#FFF7ED"/>
<path d="M11.3464 3.47607H8.58386C8.52585 3.47607 8.47021 3.45303 8.42918 3.412C8.38816 3.37098 8.36511 3.31534 8.36511 3.25732C8.36511 3.19931 8.38816 3.14367 8.42918 3.10264C8.47021 3.06162 8.52585 3.03857 8.58386 3.03857H11.3464C11.4044 3.03857 11.46 3.06162 11.501 3.10264C11.5421 3.14367 11.5651 3.19931 11.5651 3.25732C11.5651 3.31534 11.5421 3.37098 11.501 3.412C11.46 3.45303 11.4044 3.47607 11.3464 3.47607Z" fill="#FFF7ED"/>
</svg>
