<svg width="12" height="12" viewBox="0 0 12 12" fill="none" xmlns="http://www.w3.org/2000/svg">
<mask id="mask0" style="mask-type:alpha" maskUnits="userSpaceOnUse" x="1" y="0" width="10" height="12">
<g clip-path="url(#clip0)">
<path d="M10.5 2.85703V3H7.5V0H7.64297C7.79297 0 7.93594 0.0585938 8.04141 0.164062L10.3359 2.46094C10.4414 2.56641 10.5 2.70938 10.5 2.85703ZM7.3125 3.75H10.5V11.4375C10.5 11.7492 10.2492 12 9.9375 12H2.0625C1.75078 12 1.5 11.7492 1.5 11.4375V0.5625C1.5 0.250781 1.75078 0 2.0625 0H6.75V3.1875C6.75 3.49688 7.00313 3.75 7.3125 3.75ZM5.91562 6.31875L3.68906 8.54531L3.5625 9.675C3.54609 9.825 3.67266 9.95391 3.825 9.9375L4.95469 9.81094L7.18125 7.58438C7.22812 7.5375 7.22812 7.4625 7.18125 7.41562L6.08438 6.31875C6.0375 6.27188 5.9625 6.27188 5.91562 6.31875ZM8.48672 5.60859L7.89141 5.01328C7.70625 4.82812 7.40625 4.82812 7.22109 5.01328L6.61172 5.62266C6.56484 5.66953 6.56484 5.74453 6.61172 5.79141L7.70859 6.88828C7.75547 6.93516 7.83047 6.93516 7.87734 6.88828L8.48672 6.27891C8.67188 6.09375 8.67188 5.79375 8.48672 5.60859Z" fill="black"/>
</g>
</mask>
<g mask="url(#mask0)">
<rect width="12" height="12" fill="#646D7D"/>
</g>
<defs>
<clipPath id="clip0">
<rect width="9" height="12" fill="white" transform="translate(1.5)"/>
</clipPath>
</defs>
</svg>
