<svg width="12" height="12" viewBox="0 0 12 12" fill="none" xmlns="http://www.w3.org/2000/svg">
<mask id="mask0" style="mask-type:alpha" maskUnits="userSpaceOnUse" x="0" y="0" width="12" height="12">
<path d="M12 6.00042C12 8.06817 10.3178 9.75042 8.25 9.75042H3.98595L4.79482 10.5102C5.02627 10.7277 5.03198 11.0934 4.80745 11.318L4.55491 11.5705C4.33523 11.7902 3.9791 11.7902 3.75942 11.5705L1.58709 9.3982C1.36741 9.17852 1.36741 8.82239 1.58709 8.60271L3.75942 6.43038C3.9791 6.21071 4.33523 6.21071 4.55491 6.43038L4.80745 6.68292C5.03201 6.90748 5.02629 7.27324 4.79482 7.49067L3.98595 8.25042H8.25C9.49066 8.25042 10.5 7.24109 10.5 6.00042C10.5 5.67328 10.4298 5.36227 10.3037 5.08158C10.2085 4.86973 10.2502 4.6216 10.4144 4.45737L10.6999 4.17183C10.9694 3.90232 11.4257 3.972 11.5979 4.31203C11.855 4.81974 12 5.39346 12 6.00042ZM1.69631 6.91927C1.57022 6.63858 1.5 6.32756 1.5 6.00042C1.5 4.75976 2.50934 3.75042 3.75 3.75042H8.01406L7.20518 4.51024C6.97373 4.72765 6.96802 5.09344 7.19255 5.31799L7.44509 5.57053C7.66477 5.79019 8.0209 5.79019 8.24058 5.57053L10.4129 3.39821C10.6326 3.17853 10.6326 2.82239 10.4129 2.60271L8.24058 0.430385C8.0209 0.210705 7.66477 0.210705 7.44509 0.430385L7.19255 0.682924C6.96799 0.907479 6.97371 1.27324 7.20518 1.49067L8.01406 2.25042H3.75C1.68223 2.25042 0 3.93267 0 6.00042C0 6.60738 0.144984 7.18111 0.402117 7.68884C0.574313 8.02887 1.03055 8.09855 1.30005 7.82904L1.58559 7.5435C1.74984 7.37925 1.79152 7.13112 1.69631 6.91927Z" fill="black"/>
</mask>
<g mask="url(#mask0)">
<rect width="12" height="12" fill="#646D7D"/>
</g>
</svg>
